<svg xmlns="http://www.w3.org/2000/svg" xmlns:xlink="http://www.w3.org/1999/xlink" viewBox="0 0 406.11 504.93"><defs><linearGradient id="Gradiente_sem_nome_24" x1="481.18" y1="421.14" x2="481.18" y2="421.14" gradientTransform="matrix(1, 0, 0, -1, -41.64, 859.06)" gradientUnits="userSpaceOnUse"><stop offset="0" stop-color="#fff"/><stop offset="0"/></linearGradient><linearGradient id="Gradiente_sem_nome_24-2" x1="272.98" y1="353.35" x2="272.98" y2="353.35" xlink:href="#Gradiente_sem_nome_24"/><linearGradient id="Gradiente_sem_nome_24-3" x1="123.82" y1="683.22" x2="438.65" y2="683.22" xlink:href="#Gradiente_sem_nome_24"/><linearGradient id="Gradiente_sem_nome_24-4" x1="165.92" y1="662.9" x2="397.06" y2="662.9" xlink:href="#Gradiente_sem_nome_24"/><linearGradient id="Gradiente_sem_nome_24-5" x1="387.08" y1="669.38" x2="428.93" y2="669.38" xlink:href="#Gradiente_sem_nome_24"/><linearGradient id="Gradiente_sem_nome_24-6" x1="339.83" y1="641.62" x2="381.61" y2="641.62" xlink:href="#Gradiente_sem_nome_24"/><linearGradient id="Gradiente_sem_nome_24-7" x1="208.86" y1="603.16" x2="245.91" y2="603.16" xlink:href="#Gradiente_sem_nome_24"/><linearGradient id="Gradiente_sem_nome_24-8" x1="204.97" y1="653.1" x2="233.59" y2="653.1" xlink:href="#Gradiente_sem_nome_24"/><linearGradient id="Gradiente_sem_nome_24-9" x1="329.68" y1="693.76" x2="359.57" y2="693.76" xlink:href="#Gradiente_sem_nome_24"/><linearGradient id="Gradiente_sem_nome_24-10" x1="293.65" y1="594.09" x2="318.35" y2="594.09" xlink:href="#Gradiente_sem_nome_24"/><linearGradient id="Gradiente_sem_nome_24-11" x1="277.62" y1="577.17" x2="343.65" y2="577.17" xlink:href="#Gradiente_sem_nome_24"/><linearGradient id="Gradiente_sem_nome_24-12" x1="181.86" y1="558.09" x2="194.78" y2="558.09" xlink:href="#Gradiente_sem_nome_24"/><linearGradient id="Gradiente_sem_nome_24-13" x1="409.54" y1="627.55" x2="424.26" y2="627.55" xlink:href="#Gradiente_sem_nome_24"/><linearGradient id="Gradiente_sem_nome_24-14" x1="297.67" y1="506.99" x2="308.14" y2="506.99" xlink:href="#Gradiente_sem_nome_24"/><linearGradient id="Gradiente_sem_nome_24-15" x1="343.67" y1="522.62" x2="355.35" y2="522.62" xlink:href="#Gradiente_sem_nome_24"/><linearGradient id="Gradiente_sem_nome_24-16" x1="368.17" y1="573.32" x2="502.61" y2="573.32" xlink:href="#Gradiente_sem_nome_24"/><linearGradient id="Gradiente_sem_nome_24-17" x1="473.93" y1="641.25" x2="484.15" y2="641.25" xlink:href="#Gradiente_sem_nome_24"/><linearGradient id="Gradiente_sem_nome_24-18" x1="96.5" y1="509.43" x2="289.12" y2="509.43" xlink:href="#Gradiente_sem_nome_24"/><linearGradient id="Gradiente_sem_nome_24-19" x1="280.82" y1="504.33" x2="366.83" y2="504.33" xlink:href="#Gradiente_sem_nome_24"/><linearGradient id="Gradiente_sem_nome_24-20" x1="247.15" y1="415.19" x2="428.25" y2="415.19" xlink:href="#Gradiente_sem_nome_24"/><linearGradient id="Gradiente_sem_nome_24-21" x1="309.62" y1="447.32" x2="383.54" y2="447.32" xlink:href="#Gradiente_sem_nome_24"/><linearGradient id="Gradiente_sem_nome_24-22" x1="272.43" y1="401.26" x2="432.13" y2="401.26" xlink:href="#Gradiente_sem_nome_24"/><linearGradient id="Gradiente_sem_nome_24-23" x1="335.83" y1="375.66" x2="342.15" y2="375.66" xlink:href="#Gradiente_sem_nome_24"/><linearGradient id="Gradiente_sem_nome_24-24" x1="348.5" y1="417.9" x2="369.42" y2="417.9" xlink:href="#Gradiente_sem_nome_24"/><linearGradient id="Gradiente_sem_nome_24-25" x1="354.24" y1="425.59" x2="377.13" y2="425.59" xlink:href="#Gradiente_sem_nome_24"/><linearGradient id="Gradiente_sem_nome_24-26" x1="330.08" y1="419.63" x2="383.39" y2="419.63" xlink:href="#Gradiente_sem_nome_24"/></defs><g id="Pele"><g id="Camada_8" data-name="Camada 8"><path d="M111.45,157.22a342.16,342.16,0,0,1-2.94-59.33c.36-9.45,2.43-20.82,11.25-24.25,5.9-2.3,12.81.22,17.43,4.55s7.41,10.22,10.12,16c2.14-5.34,1.95-11.29,3-16.94s4.16-11.63,9.7-13.19c8.16-2.29,15.09,6,19.53,13.18-.08-21.56,6.06-44.31,22-58.79S244.81,1,260.28,16c12.22,11.88,14.23,30.66,22.87,45.36-1.7-9.14,5.68-18.46,14.77-20.42s18.79,2.48,24.7,9.65,8.49,16.63,8.93,25.91c4.17-8.66,15.26-12.63,24.59-10.27S372.86,76.13,377,84.83s5.34,18.47,5.79,28.08c.82,17.82-1.36,37-12.88,50.66,9.35-2.26,19.14,5.13,21.82,14.36s-.43,19.33-5.78,27.34c-.94,1.41-2,2.88-2,4.57-.08,2.9,2.63,5,4.68,7a19.77,19.77,0,0,1-22.82,31.67c1.33,16.94-5.72,33.81-16.63,46.83s-25.43,22.57-40.55,30.32c-24.11,12.35-51,20.66-78,19s-54.21-14.35-69.14-37c-1.72,8.61-10.44,15.24-19.2,14.55A18.78,18.78,0,0,1,125.45,305c-.36-8.77,6.56-17.25,15.24-18.66C111.45,273.84,94.26,243.1,85,212.71l23.1-6.83c-2.94-6.14-8.72-11.47-11.36-17.76a51.7,51.7,0,0,1-2.45-8.21A38.75,38.75,0,0,1,92.83,170a13.85,13.85,0,0,1,3.39-9.2,10.61,10.61,0,0,1,10.69-2.75,7.46,7.46,0,0,0,2.38.57C110.11,158.61,111.56,158,111.45,157.22Z" transform="translate(-54.86 -3.91)" style="fill:#d9a068"/><path d="M144.78,282.32c-9.27-28.54-18.58-59.37-9.57-88,2.26-7.15,5.58-15.07,2.16-21.74,8,9.94,20.86,16.73,33.42,14.57s23.15-15.15,20.1-27.53c-1.26,4.25.61,9,4,11.93s7.92,4.08,12.36,4.05c11.35-.09,21.59-7.64,27.91-17.06s9.41-20.6,12.4-31.54c-6.39,6.13-2.9,18,4.79,22.39s17.41,3,25.71,0c6.48-2.41,12.74-5.9,17.25-11.15s7.08-12.45,5.65-19.22c-2.06,7.34-.8,15.24,1.42,22.54,1.5,5,3.63,10,7.79,13.13a19.59,19.59,0,0,0,8.29,3.31c13.64,2.47,28.47-5.17,34.37-17.71" transform="translate(-54.86 -3.91)" style="fill:none"/><path d="M347.42,153.23a348.21,348.21,0,0,1,17.86,66.62,21,21,0,0,1,18-5" transform="translate(-54.86 -3.91)" style="fill:none"/><path d="M299.94,225.69c3.35-5.28,10.1-7.05,16.22-8.32,7.83-1.62,17.91,0,21.08-9.48" transform="translate(-54.86 -3.91)" style="fill:none"/><path d="M167.85,261.08c3.94,1.7,8.59.39,12.27-1.84s6.8-5.29,10.49-7.49,8.36-3.48,12.28-1.73" transform="translate(-54.86 -3.91)" style="fill:none"/><path d="M165,213.49c2-2.74,4.13-5.53,6.92-7.5a30.14,30.14,0,0,1,7-3.36c4-1.48,8-2.84,12-4" transform="translate(-54.86 -3.91)" style="fill:none"/><path d="M316.7,166a39.18,39.18,0,0,0-28.08.44" transform="translate(-54.86 -3.91)" style="fill:none"/><path d="M252.09,267.86a24.71,24.71,0,0,0,22.39-7.73" transform="translate(-54.86 -3.91)" style="fill:none"/><path d="M236.31,289.78c14.23,4.05,29.88,7.75,43.44,1.79a33.71,33.71,0,0,0,19.43-25.36" transform="translate(-54.86 -3.91)" style="fill:none"/><path d="M142.48,304.73a5.2,5.2,0,0,1,8.61-5" transform="translate(-54.86 -3.91)" style="fill:none"/><path d="M370,235.5c-.12-2.57,2-4.81,4.41-5.69s5.06-.69,7.62-.5" transform="translate(-54.86 -3.91)" style="fill:none"/><path d="M256.16,357.36a9.31,9.31,0,0,0,6.74-12.8" transform="translate(-54.86 -3.91)" style="fill:none"/><path d="M303.9,329.71q1.58,3.09,3.17,6.18c1.29,2.52,3.24,5.42,6.06,5.17" transform="translate(-54.86 -3.91)" style="fill:none"/><path d="M352.71,308.49l18.9-21.19,37-41.43a13,13,0,0,0,3.16-4.82c.58-2,.12-4.21-.33-6.28-1-4.4-1.94-8.81-2.9-13.2-1.47-6.69-2.4-15,3.05-19.12a3.26,3.26,0,0,1,2-.82,3.7,3.7,0,0,1,2.47,1.51,18.35,18.35,0,0,1,4.54,11.79q6.81-10.11,14-20c1.35-1.85,3.05-3.87,5.34-3.91,2.77,0,4.71,3.1,4.47,5.86s-1.95,5.13-3.61,7.35a11.49,11.49,0,0,1,10.05-5.5c1.35,2.53.73,5.75-.82,8.17a24.2,24.2,0,0,1-6.19,5.91c2.37-1.56,4.9-3.18,7.74-3.29s6,1.92,5.93,4.76c0,3.45-4.13,5.15-7.49,6,3.61.61,8.13,2.25,8.12,5.91,0,3-3.16,4.85-6,5.71-4.68,1.41-9.61,1.76-14.35,2.93s-9.53,3.4-12.19,7.49a28.78,28.78,0,0,0-2.86,6.92c-1.11,3.41-2.41,6.74-3.7,10.09q-4.06,10.5-8.13,21c-11.45,29.61-23.08,59.55-41.33,85.54-3.41,4.87-7.16,9.69-12.19,12.86-2.92-4.23-8.05-6.22-12.2-9.24-9.41-6.83-13.87-19-16.25-30-1.51-7,4.49-10,9.16-15C343.05,319.31,347.88,313.9,352.71,308.49Z" transform="translate(-54.86 -3.91)" style="fill:#d9a068"/><path d="M434.2,210.49a132.54,132.54,0,0,1,5.58,14.16" transform="translate(-54.86 -3.91)" style="fill:none"/><path d="M61.7,314.7c-1.32,0-2.91.16-3.51,1.33a2.88,2.88,0,0,0,.3,2.64c1.63,2.86,5.24,3.9,8.53,4.18s6.73.07,9.72,1.47c-3-.44-6.49.52-7.67,3.27-1.77,4.1,3.12,8.31,7.59,8.43s8.67-2.06,13.12-2.46c8.79-.79,16.53,5.29,23.42,10.82a436.32,436.32,0,0,0,86,53.93c10.9,5.17,22.08,9.93,33.87,12.46-1.16-8.93,7.56-15.87,10.44-24.4s-.41-17.9-3.68-26.35c-7.59,1.69-15.48,0-23.06-1.75l-44.59-10.12c-10.65-2.42-21.34-4.85-31.55-8.75-11.23-4.3-21.7-10.32-32.12-16.33a20.85,20.85,0,0,1-6.27-4.75c-2.82-3.56-3-8.44-3.59-12.95a63.41,63.41,0,0,0-3.26-13.73c-.55-1.56-1.26-3.2-2.68-4.06-2.52-1.51-5.95.47-7.06,3.19s-.56,5.79,0,8.68q-8.19-5.26-16.56-10.24a9.62,9.62,0,0,0-4.18-1.65,3.32,3.32,0,0,0-3.5,2.25c-.31,1.45.72,2.79,1.7,3.89a122.86,122.86,0,0,0,9.19,9.21A21.35,21.35,0,0,0,60.18,300a3.72,3.72,0,0,0-2.66,1c-1,1.13-.42,2.89.31,4.17,2.58,4.54,7.77,9.18,13.11,9.7A71,71,0,0,0,61.7,314.7Z" transform="translate(-54.86 -3.91)" style="fill:#d9a068"/><path d="M240.1,356.77a14.6,14.6,0,0,1,15.34.48,42.26,42.26,0,0,1,5.74,5.38A44.73,44.73,0,0,0,276,372.47c6.57,2.67,14.45,3.61,20.48-.1,3.77-2.33,6.33-6.16,8.58-10,2.88-4.87,5.48-10.11,6-15.74.18-2,.09-4,.8-5.91,1.81-4.7,7.66-6.12,12.64-6.88" transform="translate(-54.86 -3.91)" style="fill:none"/><path d="M234.7,412.93a102.16,102.16,0,0,0-3.39,25.62c0,4.67.28,9.43-.94,13.93a42.65,42.65,0,0,1-4.89,10.3q-4.81,8.14-9.6,16.27c-3.87,6.55-7.83,13.43-8.22,21a4.54,4.54,0,0,0,.59,2.95,4.44,4.44,0,0,0,2.16,1.38c9.43,3.42,19.78-1.18,28.35-6.38s17.11-11.49,22.82-19.91c7.57-11.16,9.68-25.1,15.49-37.27,10.07-21.07,30.77-35.48,52.76-43.39,9-3.24,18.55-5.58,28.12-5.06s19.26,4.15,25.66,11.3c.88-3.53-2.54-6.53-5.56-8.55l-21-14.14" transform="translate(-54.86 -3.91)" style="fill:none"/><path d="M341.14,382.77a46,46,0,0,0-35.87,9.58c-5.66,4.59-10.12,10.47-14.4,16.39-4,5.48-7.84,11.08-10.61,17.24s-5.71,13.86-12.39,14.56" transform="translate(-54.86 -3.91)" style="fill:none"/><path d="M230.68,505.33a139.24,139.24,0,0,0,92.75-24.45,51.34,51.34,0,0,0,10.37-9.07c4.05-4.89,6.56-10.91,10.54-15.87,6.78-8.44,17.15-13.07,27.32-16.78,5-1.84,10.45-3.79,13.51-8.19,4.71-6.78,1.75-16-1.33-23.65" transform="translate(-54.86 -3.91)" style="fill:none"/><path d="M295.75,479.24a8.47,8.47,0,0,1,1.37,8.27" transform="translate(-54.86 -3.91)" style="fill:none"/><path d="M317.52,432.6c-2.91.1-6.34.48-7.8,3A6.88,6.88,0,0,0,309,439a11.72,11.72,0,0,0,2.12,7,7.49,7.49,0,0,0,6.42,3.1,12.44,12.44,0,0,0,5.56-2.44,3.76,3.76,0,0,0,1.71-1.75,3.83,3.83,0,0,0,0-1.75c-.19-1.25-.38-2.49-.56-3.74-.34-2.21-.72-4.56-2.21-6.25s-4.43-2.27-5.89-.59" transform="translate(-54.86 -3.91)" style="fill:none"/><path d="M332.55,424.67a9.3,9.3,0,0,1-2,6.76,23.82,23.82,0,0,1-5.31,4.8c-1.36,1-7.59,6.32-9.28,5.61-2.83-1.17-.14-5.33.85-6.81A24.2,24.2,0,0,1,332.55,424.67Z" transform="translate(-54.86 -3.91)" style="fill:none"/><path d="M296.52,427.93a12,12,0,0,0-5.65,12.85c1.5,6.32,7.79,10.17,13.68,12.93A160.18,160.18,0,0,0,329.48,463a230.33,230.33,0,0,0,8-26c.93-3.79,1.76-7.68,1.32-11.55s-2.36-7.78-5.78-9.65a11,11,0,0,0-11.11.8,16.06,16.06,0,0,0-6.33,9.53c-.4,1.61-.68,3.42-1.94,4.53-2.56,2.26-4.41-1.94-6.31-2.94A11.85,11.85,0,0,0,296.52,427.93Z" transform="translate(-54.86 -3.91)" style="fill:none"/></g></g><g id="Cabelo"><path d="M141,285c-29.24-12.46-46.92-41.7-56.23-72.1l23.1-6.83c-2.94-6.13-8.72-11.47-11.36-17.75a53.21,53.21,0,0,1-2.45-8.22,38.74,38.74,0,0,1-1.41-9.9A13.85,13.85,0,0,1,96,161a10.63,10.63,0,0,1,10.69-2.75,7.54,7.54,0,0,0,2.38.58c.82,0,2.27-.59,2.16-1.41a343.08,343.08,0,0,1-2.93-59.32c.35-9.46,3.42-20.83,12.24-24.26,5.91-2.3,12.81.22,17.43,4.56s6.41,10.21,9.12,15.94c2.14-5.33,3-11.29,4.05-16.93s4.15-11.64,9.69-13.2c8.16-2.29,15.09,6,19.54,13.19-.09-21.57,6.06-44.32,22-58.8s43.2-17.43,58.67-2.41C273.32,28.06,275.33,46.84,284,61.54c-1.7-9.13,5.68-18.45,14.77-20.42s18.79,2.49,24.7,9.65,8.49,16.63,8.93,25.91C336.55,68,347.64,64.05,357,66.41S372.68,76.32,376.79,85s5.34,18.47,5.79,28.08c.83,17.82-1.36,37-12.88,50.66,9.35-2.26,19.14,5.13,21.83,14.36s-.44,19.33-5.79,27.34c-.94,1.41-2,2.88-2,4.58-.09,2.89,2.62,5,4.67,7l-5.28-2a21,21,0,0,0-18,5,389.66,389.66,0,0,0-18.6-70.54c-7.23,6.54-18.79,10.52-28.25,8.67a19.06,19.06,0,0,1-8.29-3.31c-4.16-3.08-6.29-8.17-7.79-13.13-2.21-7.3-3.47-15.19-1.42-22.54,1.43,6.77-1.14,14-5.65,19.23s-10.76,8.73-17.25,11.14c-8.3,3.08-18,4.43-25.71,0s-11.17-16.25-4.79-22.39c-3,11-6.08,22.11-12.4,31.54s-16.56,17-27.91,17.06c-4.43,0-9-1.15-12.36-4.05s-5.23-7.68-4-11.92c3,12.38-7.52,25.37-20.09,27.52s-25.44-4.63-33.43-14.57c3.43,6.67.1,14.59-2.15,21.74-9,28.62.7,58.93,10,87.47l2,5Z" transform="translate(-54.86 -3.91)" style="fill:#4b2e2e"/></g><g id="Pescoço"><g id="Camada_8-2" data-name="Camada 8"><path d="M262.16,342.81l41-13.94.67,1.42,3.18,6.18c1.28,2.52,3.24,5.42,6.06,5.17l-1.32-.32c-.71,1.87-.63,3.92-.8,5.91-.48,5.64-3.09,10.87-6,15.74-2.26,3.82-4.81,7.65-8.58,10-6,3.71-13.91,2.77-20.48.11a45,45,0,0,1-14.81-9.84,41.23,41.23,0,0,0-5.75-5.39l.72.11a9.31,9.31,0,0,0,6.75-12.8Z" transform="translate(-54.86 -3.91)" style="fill:#d9a068"/></g></g><g id="Barriga"><g id="Camada_8-3" data-name="Camada 8"><path d="M268.39,441.09" transform="translate(-54.86 -3.91)" style="fill:none"/><path d="M227,506c32.5,3.18,70.24-5.77,96.95-24.56a51.61,51.61,0,0,0,10.37-9.07c4.05-4.89,6.56-10.91,10.54-15.87,6.78-8.44,17.15-13.07,27.32-16.78,5-1.84,10.45-3.79,13.51-8.19,4.7-6.78,1.75-16-1.33-23.65l-.23-3.63c-6.4-7.15-16.08-10.78-25.66-11.3s-19.1,1.82-28.12,5.06c-22,7.91-42.69,22.32-52.76,43.39-5.81,12.17-7.92,26.11-15.49,37.27-5.71,8.42-14.13,14.62-22.82,19.91Z" transform="translate(-54.86 -3.91)" style="fill:#d9a068"/></g></g><g id="Coração"><g id="Camada_8-4" data-name="Camada 8"><path d="M317.56,432.89c-2.92.1-6.35.48-7.8,3a6.79,6.79,0,0,0-.73,3.42,11.71,11.71,0,0,0,2.12,7,7.53,7.53,0,0,0,6.43,3.11c2-.18,3.84-1.33,5.56-2.45a3.79,3.79,0,0,0,1.7-1.75,3.83,3.83,0,0,0,0-1.75c-.19-1.25-.38-2.49-.56-3.74-.34-2.21-.72-4.56-2.2-6.25s-4.44-2.27-5.9-.59" transform="translate(-54.86 -3.91)" style="fill:none"/><path d="M332.58,425a9.24,9.24,0,0,1-2,6.75,23.6,23.6,0,0,1-5.31,4.8c-1.36,1-7.59,6.32-9.27,5.62-2.84-1.18-.15-5.33.84-6.81A24.13,24.13,0,0,1,332.58,425Z" transform="translate(-54.86 -3.91)" style="fill:none"/><path d="M296.55,428.23a12,12,0,0,0-5.65,12.84c1.5,6.33,7.79,10.17,13.68,12.93a160.18,160.18,0,0,0,24.93,9.27,232.44,232.44,0,0,0,8-26c.92-3.79,1.76-7.68,1.31-11.55s-2.36-7.77-5.78-9.65a11,11,0,0,0-11.11.8,16.06,16.06,0,0,0-6.33,9.53c-.4,1.62-.68,3.42-1.94,4.53-2.56,2.26-4.41-1.94-6.31-2.93A11.79,11.79,0,0,0,296.55,428.23Z" transform="translate(-54.86 -3.91)" style="fill:red"/></g><path d="M318,433c-2.91.1-6.34.48-7.8,3a6.88,6.88,0,0,0-.72,3.41,11.72,11.72,0,0,0,2.12,7,7.49,7.49,0,0,0,6.42,3.1,12.44,12.44,0,0,0,5.56-2.44,3.76,3.76,0,0,0,1.71-1.75,3.7,3.7,0,0,0,0-1.75c-.18-1.25-.37-2.49-.55-3.74-.34-2.21-.72-4.56-2.21-6.25s-4.43-2.27-5.89-.59" transform="translate(-54.86 -3.91)" style="fill:none"/><path d="M333,425.1a9.3,9.3,0,0,1-2,6.76,23.82,23.82,0,0,1-5.31,4.8c-1.36,1-7.59,6.32-9.28,5.61-2.83-1.17-.14-5.33.85-6.81A24.2,24.2,0,0,1,333,425.1Z" transform="translate(-54.86 -3.91)" style="fill:none"/><path d="M439.21,437.84" transform="translate(-54.86 -3.91)" style="fill:red"/><path d="M318.29,433.11c-2.91.09-6.34.48-7.8,3a6.88,6.88,0,0,0-.72,3.41,11.71,11.71,0,0,0,2.12,7,7.52,7.52,0,0,0,6.42,3.11c2-.17,3.85-1.33,5.56-2.44a3.81,3.81,0,0,0,1.71-1.75,3.7,3.7,0,0,0,0-1.75c-.18-1.25-.37-2.5-.55-3.75-.34-2.21-.72-4.56-2.21-6.25s-4.43-2.27-5.89-.58" transform="translate(-54.86 -3.91)" style="fill:#d9a068"/><path d="M333.32,425.18a9.26,9.26,0,0,1-2,6.75,23.35,23.35,0,0,1-5.31,4.8c-1.36,1-7.59,6.32-9.28,5.62-2.83-1.17-.14-5.33.85-6.81A24.16,24.16,0,0,1,333.32,425.18Z" transform="translate(-54.86 -3.91)" style="fill:#004caa"/><path d="M439.54,437.91" transform="translate(-54.86 -3.91)" style="fill:none;stroke-miterlimit:10;stroke-width:5px;stroke:url(#Gradiente_sem_nome_24)"/></g><g id="Camisa"><path d="M235.36,413.31A102.17,102.17,0,0,0,232,438.94c0,4.66.28,9.42-.94,13.92a42.88,42.88,0,0,1-4.9,10.3l-9.6,16.27c-3.87,6.55-7.83,13.43-8.21,21a4.56,4.56,0,0,0,.58,2.94,4.4,4.4,0,0,0,2.17,1.38c9.42,3.42,19.77-1.18,28.34-6.38s17.11-11.49,22.83-19.9c7.57-11.17,9.67-25.11,15.48-37.27,10.07-21.08,30.77-35.49,52.76-43.39,9-3.25,18.56-5.58,28.13-5.06s19.25,4.14,25.66,11.29c.87-3.53-2.54-6.52-5.56-8.55l-21-14.14.28-2.21c-2.92-4.24-8-6.23-12.2-9.25C336.42,363.09,330.38,345,328,334l-2.89.24c-5,.76-10.83,2.18-12.63,6.88-.72,1.87-.63,3.92-.8,5.91-.48,5.64-3.09,10.87-6,15.75-2.25,3.81-4.81,7.64-8.58,10-6,3.71-13.9,2.77-20.47.11A45,45,0,0,1,261.84,363a41.15,41.15,0,0,0-5.74-5.39,14.6,14.6,0,0,0-15.34-.48l-.27,3.25c3.27,8.46,6.57,17.77,3.68,26.36s-11.6,15.46-10.43,24.39Z" transform="translate(-54.86 -3.91)" style="fill:#fff600"/><path d="M231.34,505.71" transform="translate(-54.86 -3.91)" style="fill:none;stroke-miterlimit:10;stroke-width:5px;stroke:url(#Gradiente_sem_nome_24-2)"/></g><g id="Traçado"><g id="Camada_8-5" data-name="Camada 8"><path d="M111.81,157.59a342.15,342.15,0,0,1-2.93-59.33c.35-9.45,2.42-20.82,11.24-24.26,5.91-2.3,12.81.22,17.43,4.56s7.41,10.22,10.12,16c2.14-5.34,2-11.29,3.05-16.94s4.15-11.64,9.69-13.19c8.16-2.29,15.09,6,19.54,13.18C179.86,56,186,33.25,202,18.76s43.2-17.42,58.67-2.4C272.86,28.24,274.87,47,283.51,61.72c-1.7-9.14,5.68-18.46,14.77-20.42S317.07,43.78,323,51s8.49,16.63,8.93,25.91c4.17-8.67,15.27-12.63,24.6-10.27s16.71,9.9,20.82,18.61,5.34,18.47,5.79,28.08c.83,17.82-1.36,37-12.88,50.66,9.35-2.26,19.14,5.12,21.82,14.36s-.43,19.33-5.78,27.33c-.94,1.42-2,2.89-2,4.58-.08,2.9,2.63,5,4.68,7a19.78,19.78,0,0,1-22.82,31.68c1.33,16.94-5.72,33.81-16.63,46.83S324,318.29,308.92,326c-24.11,12.35-51,20.66-78,19s-54.21-14.35-69.15-36.95c-1.71,8.61-10.44,15.24-19.2,14.55a18.14,18.14,0,0,1-1.49-36c-29.24-12.46-46.43-43.19-55.74-73.58l23.1-6.83c-2.94-6.14-8.72-11.48-11.36-17.76a52.76,52.76,0,0,1-2.45-8.21,38.75,38.75,0,0,1-1.41-9.91,13.83,13.83,0,0,1,3.39-9.2,10.61,10.61,0,0,1,10.69-2.75,7.52,7.52,0,0,0,2.38.57C110.47,159,111.92,158.41,111.81,157.59Z" transform="translate(-54.86 -3.91)" style="fill:none;stroke-miterlimit:10;stroke-width:5px;stroke:url(#Gradiente_sem_nome_24-3)"/><path d="M145.14,282.69c-9.27-28.54-18.58-59.37-9.56-88,2.25-7.15,5.58-15.08,2.15-21.74,8,9.93,20.86,16.73,33.43,14.57S194.3,172.39,191.25,160c-1.26,4.24.61,9,4,11.93A18.73,18.73,0,0,0,207.58,176c11.35-.09,21.59-7.64,27.91-17.06s9.41-20.6,12.4-31.54c-6.38,6.13-2.9,18,4.79,22.39s17.41,3,25.71,0c6.49-2.41,12.74-5.91,17.25-11.15s7.08-12.45,5.65-19.23c-2.05,7.35-.79,15.25,1.42,22.55,1.5,5,3.63,10,7.79,13.13a19.59,19.59,0,0,0,8.29,3.31c13.64,2.47,28.47-5.18,34.37-17.71" transform="translate(-54.86 -3.91)" style="fill:none;stroke-miterlimit:10;stroke-width:5px;stroke:url(#Gradiente_sem_nome_24-4)"/><path d="M347.78,153.6a348.21,348.21,0,0,1,17.86,66.62c3.87-5.46,13-7.35,20.86-4.72" transform="translate(-54.86 -3.91)" style="fill:none;stroke-miterlimit:10;stroke-width:5px;stroke:url(#Gradiente_sem_nome_24-5)"/><path d="M300.3,226.06c3.35-5.28,10.1-7.05,16.22-8.32,7.83-1.62,17.91,0,21.08-9.48" transform="translate(-54.86 -3.91)" style="fill:none;stroke-miterlimit:10;stroke-width:5px;stroke:url(#Gradiente_sem_nome_24-6)"/><path d="M168.21,261.45c3.95,1.7,8.59.38,12.28-1.84s6.8-5.29,10.48-7.49,8.36-3.48,12.28-1.73" transform="translate(-54.86 -3.91)" style="fill:none;stroke-miterlimit:10;stroke-width:5px;stroke:url(#Gradiente_sem_nome_24-7)"/><path d="M165.34,213.86c2-2.74,4.12-5.53,6.91-7.51a30,30,0,0,1,7-3.35c4-1.48,8-2.84,12-4.05" transform="translate(-54.86 -3.91)" style="fill:none;stroke-miterlimit:10;stroke-width:5px;stroke:url(#Gradiente_sem_nome_24-8)"/><path d="M317.06,166.36a39.23,39.23,0,0,0-28.08.43" transform="translate(-54.86 -3.91)" style="fill:none;stroke-miterlimit:10;stroke-width:5px;stroke:url(#Gradiente_sem_nome_24-9)"/><path d="M252.45,268.23a24.76,24.76,0,0,0,22.39-7.73" transform="translate(-54.86 -3.91)" style="fill:none;stroke-miterlimit:10;stroke-width:5px;stroke:url(#Gradiente_sem_nome_24-10)"/><path d="M236.67,290.15c14.23,4.05,29.88,7.74,43.44,1.79a33.71,33.71,0,0,0,19.43-25.36" transform="translate(-54.86 -3.91)" style="fill:none;stroke-miterlimit:10;stroke-width:5px;stroke:url(#Gradiente_sem_nome_24-11)"/><path d="M142.84,305.1a5.2,5.2,0,0,1,8.61-5" transform="translate(-54.86 -3.91)" style="fill:none;stroke-miterlimit:10;stroke-width:5px;stroke:url(#Gradiente_sem_nome_24-12)"/><path d="M370.4,235.86c-.12-2.56,2-4.8,4.41-5.68s5.06-.69,7.63-.5" transform="translate(-54.86 -3.91)" style="fill:none;stroke-miterlimit:10;stroke-width:5px;stroke:url(#Gradiente_sem_nome_24-13)"/><path d="M256.52,357.73a9.29,9.29,0,0,0,6.74-12.8" transform="translate(-54.86 -3.91)" style="fill:none;stroke-miterlimit:10;stroke-width:5px;stroke:url(#Gradiente_sem_nome_24-14)"/><path d="M304.26,330.08l3.17,6.17c1.29,2.52,3.24,5.43,6.06,5.18" transform="translate(-54.86 -3.91)" style="fill:none;stroke-miterlimit:10;stroke-width:5px;stroke:url(#Gradiente_sem_nome_24-15)"/><path d="M353.07,308.86,372,287.67l37-41.43a13.08,13.08,0,0,0,3.15-4.83c.58-2,.13-4.2-.33-6.27-1-4.4-1.94-8.81-2.9-13.2-1.47-6.69-2.4-15,3.05-19.12a3.28,3.28,0,0,1,2-.82,3.68,3.68,0,0,1,2.47,1.51A18.29,18.29,0,0,1,421,215.3q6.81-10.11,14-20c1.35-1.85,3.05-3.87,5.34-3.91,2.77,0,4.72,3.09,4.48,5.85s-2,5.14-3.62,7.36a11.49,11.49,0,0,1,10.05-5.5c1.36,2.53.73,5.75-.82,8.17a24.2,24.2,0,0,1-6.19,5.91c2.37-1.57,4.9-3.18,7.74-3.3s6,1.93,5.94,4.76c0,3.46-4.14,5.16-7.5,6,3.61.61,8.13,2.25,8.12,5.91,0,3-3.16,4.85-6,5.71-4.68,1.41-9.61,1.76-14.35,2.93s-9.52,3.39-12.19,7.49a28.75,28.75,0,0,0-2.85,6.92c-1.12,3.4-2.42,6.74-3.71,10.09q-4.06,10.5-8.13,21c-11.45,29.62-23.08,59.56-41.33,85.55-3.41,4.87-7.16,9.69-12.19,12.86-2.92-4.23-8-6.22-12.2-9.24-9.41-6.83-13.87-19-16.25-30-1.51-7,4.49-10,9.16-15C343.41,319.68,348.24,314.27,353.07,308.86Z" transform="translate(-54.86 -3.91)" style="fill:none;stroke-miterlimit:10;stroke-width:5px;stroke:url(#Gradiente_sem_nome_24-16)"/><path d="M434.56,210.86A132.38,132.38,0,0,1,440.14,225" transform="translate(-54.86 -3.91)" style="fill:none;stroke-miterlimit:10;stroke-width:5px;stroke:url(#Gradiente_sem_nome_24-17)"/><path d="M62.06,315.06c-1.32,0-2.91.17-3.51,1.34a2.88,2.88,0,0,0,.3,2.64c1.63,2.86,5.24,3.9,8.53,4.18s6.73.07,9.73,1.47c-3-.44-6.5.52-7.68,3.27-1.77,4.1,3.13,8.31,7.59,8.43s8.67-2.06,13.12-2.46c8.79-.79,16.53,5.29,23.42,10.82a437.25,437.25,0,0,0,86,53.93c10.9,5.17,22.08,9.92,33.88,12.45-1.17-8.92,7.56-15.86,10.43-24.39s-.41-17.9-3.68-26.35c-7.59,1.69-15.48,0-23.06-1.75l-44.59-10.12c-10.65-2.42-21.34-4.85-31.55-8.76-11.22-4.3-21.7-10.32-32.11-16.32a21.05,21.05,0,0,1-6.28-4.75c-2.81-3.56-3-8.45-3.58-13A64.65,64.65,0,0,0,95.76,292c-.56-1.56-1.26-3.2-2.69-4.06-2.52-1.51-5.95.47-7.06,3.19s-.56,5.79,0,8.68q-8.19-5.26-16.56-10.25a9.73,9.73,0,0,0-4.18-1.64,3.3,3.3,0,0,0-3.5,2.25c-.3,1.44.72,2.79,1.71,3.89a120.86,120.86,0,0,0,9.18,9.21,21.31,21.31,0,0,0-12.12-2.9,3.68,3.68,0,0,0-2.66,1c-1,1.13-.42,2.88.32,4.17,2.57,4.54,7.76,9.18,13.11,9.7A69.41,69.41,0,0,0,62.06,315.06Z" transform="translate(-54.86 -3.91)" style="fill:none;stroke-miterlimit:10;stroke-width:5px;stroke:url(#Gradiente_sem_nome_24-18)"/><path d="M240.46,357.14a14.58,14.58,0,0,1,15.34.48,42.26,42.26,0,0,1,5.74,5.38,44.73,44.73,0,0,0,14.81,9.84c6.57,2.67,14.45,3.61,20.48-.1,3.77-2.33,6.33-6.16,8.58-10,2.88-4.87,5.48-10.11,6-15.74.18-2,.09-4,.8-5.91,1.81-4.7,7.66-6.13,12.64-6.89" transform="translate(-54.86 -3.91)" style="fill:none;stroke-miterlimit:10;stroke-width:5px;stroke:url(#Gradiente_sem_nome_24-19)"/><path d="M235.06,413.3a101.63,101.63,0,0,0-3.38,25.62c0,4.67.27,9.43-1,13.93a42.82,42.82,0,0,1-4.89,10.3q-4.82,8.14-9.6,16.27c-3.87,6.55-7.83,13.42-8.22,21a4.6,4.6,0,0,0,.59,2.95,4.49,4.49,0,0,0,2.16,1.38c9.43,3.42,19.78-1.18,28.35-6.39s17.11-11.48,22.83-19.9c7.56-11.16,9.67-25.1,15.48-37.27,10.07-21.07,30.77-35.48,52.76-43.39,9-3.24,18.55-5.58,28.12-5.06s19.26,4.15,25.67,11.29c.87-3.53-2.54-6.52-5.56-8.55l-21-14.14" transform="translate(-54.86 -3.91)" style="fill:none;stroke-miterlimit:10;stroke-width:5px;stroke:url(#Gradiente_sem_nome_24-20)"/><path d="M341.5,383.13a46,46,0,0,0-35.87,9.58c-5.66,4.6-10.12,10.48-14.4,16.39-4,5.49-7.84,11.08-10.61,17.25s-5.71,13.86-12.38,14.55" transform="translate(-54.86 -3.91)" style="fill:none;stroke-miterlimit:10;stroke-width:5px;stroke:url(#Gradiente_sem_nome_24-21)"/><path d="M231,505.69a139.18,139.18,0,0,0,92.75-24.44,51.34,51.34,0,0,0,10.37-9.07c4-4.89,6.56-10.91,10.54-15.87,6.78-8.44,17.15-13.07,27.32-16.78,5-1.84,10.46-3.79,13.51-8.19,4.71-6.78,1.75-16-1.32-23.65" transform="translate(-54.86 -3.91)" style="fill:none;stroke-miterlimit:10;stroke-width:5px;stroke:url(#Gradiente_sem_nome_24-22)"/><path d="M296.11,479.61a8.47,8.47,0,0,1,1.38,8.27" transform="translate(-54.86 -3.91)" style="fill:none;stroke-miterlimit:10;stroke-width:5px;stroke:url(#Gradiente_sem_nome_24-23)"/><path d="M317.89,433c-2.92.09-6.35.48-7.8,3a6.78,6.78,0,0,0-.73,3.41,11.76,11.76,0,0,0,2.12,7,7.52,7.52,0,0,0,6.43,3.1c2-.17,3.84-1.33,5.56-2.44a3.79,3.79,0,0,0,1.7-1.75,3.83,3.83,0,0,0,0-1.75c-.19-1.25-.38-2.49-.56-3.74-.34-2.22-7.65,3.36-9.13,1.67s2.49-10.2,1-8.51" transform="translate(-54.86 -3.91)" style="fill:none;stroke-miterlimit:10;stroke-width:5px;stroke:url(#Gradiente_sem_nome_24-24)"/><path d="M332.91,425a9.22,9.22,0,0,1-2,6.75,23.14,23.14,0,0,1-5.31,4.8c-1.36,1-7.59,6.32-9.27,5.62-2.84-1.17-.15-5.33.84-6.81A24.16,24.16,0,0,1,332.91,425Z" transform="translate(-54.86 -3.91)" style="fill:none;stroke-miterlimit:10;stroke-width:5px;stroke:url(#Gradiente_sem_nome_24-25)"/><path d="M296.88,428.3a12,12,0,0,0-5.65,12.84c1.5,6.33,7.79,10.18,13.68,12.94a159.13,159.13,0,0,0,24.93,9.26,231.64,231.64,0,0,0,8-26c.92-3.79,1.76-7.68,1.31-11.56s-2.36-7.77-5.78-9.64a11,11,0,0,0-11.11.79,16.11,16.11,0,0,0-6.33,9.54c-.4,1.61-.68,3.42-1.94,4.53-2.56,2.26-4.41-1.95-6.31-2.94A11.82,11.82,0,0,0,296.88,428.3Z" transform="translate(-54.86 -3.91)" style="fill:none;stroke-miterlimit:10;stroke-width:5px;stroke:url(#Gradiente_sem_nome_24-26)"/></g></g></svg>