<?xml version="1.0" encoding="utf-8"?>
<!-- Generator: Adobe Illustrator 25.0.0, SVG Export Plug-In . SVG Version: 6.00 Build 0)  -->
<svg version="1.1" xmlns="http://www.w3.org/2000/svg" xmlns:xlink="http://www.w3.org/1999/xlink" x="0px" y="0px"
	 viewBox="0 0 612 792" style="enable-background:new 0 0 612 792;" xml:space="preserve">
<style type="text/css">
	.st0{fill:none;stroke:url(#SVGID_1_);stroke-width:5;stroke-miterlimit:10;}
	.st1{fill:none;stroke:url(#SVGID_2_);stroke-width:5;stroke-miterlimit:10;}
	.st2{fill:none;stroke:url(#SVGID_3_);stroke-width:5;stroke-miterlimit:10;}
	.st3{fill:none;stroke:url(#SVGID_4_);stroke-width:5;stroke-miterlimit:10;}
	.st4{fill:none;stroke:url(#SVGID_5_);stroke-width:5;stroke-miterlimit:10;}
	.st5{fill:none;stroke:url(#SVGID_6_);stroke-width:5;stroke-miterlimit:10;}
	.st6{fill:none;stroke:url(#SVGID_7_);stroke-width:5;stroke-miterlimit:10;}
	.st7{fill:none;stroke:url(#SVGID_8_);stroke-width:5;stroke-miterlimit:10;}
	.st8{fill:none;stroke:url(#SVGID_9_);stroke-width:5;stroke-miterlimit:10;}
	.st9{fill:none;stroke:url(#SVGID_10_);stroke-width:5;stroke-miterlimit:10;}
	.st10{fill:none;stroke:url(#SVGID_11_);stroke-width:5;stroke-miterlimit:10;}
	.st11{fill:none;stroke:url(#SVGID_12_);stroke-width:5;stroke-miterlimit:10;}
	.st12{fill:none;stroke:url(#SVGID_13_);stroke-width:5;stroke-miterlimit:10;}
	.st13{fill:none;stroke:url(#SVGID_14_);stroke-width:5;stroke-miterlimit:10;}
	.st14{fill:none;stroke:url(#SVGID_15_);stroke-width:5;stroke-miterlimit:10;}
	.st15{fill:none;stroke:url(#SVGID_16_);stroke-width:5;stroke-miterlimit:10;}
	.st16{fill:none;stroke:url(#SVGID_17_);stroke-width:5;stroke-miterlimit:10;}
	.st17{fill:none;stroke:url(#SVGID_18_);stroke-width:5;stroke-miterlimit:10;}
	.st18{fill:none;stroke:url(#SVGID_19_);stroke-width:5;stroke-miterlimit:10;}
	.st19{fill:none;stroke:url(#SVGID_20_);stroke-width:5;stroke-miterlimit:10;}
	.st20{fill:none;stroke:url(#SVGID_21_);stroke-width:5;stroke-miterlimit:10;}
	.st21{fill:none;stroke:url(#SVGID_22_);stroke-width:5;stroke-miterlimit:10;}
	.st22{fill:none;stroke:url(#SVGID_23_);stroke-width:5;stroke-miterlimit:10;}
	.st23{fill:none;stroke:url(#SVGID_24_);stroke-width:5;stroke-miterlimit:10;}
</style>
<g id="Camada_1">
</g>
<g id="Camada_2">
</g>
<g id="Camada_3">
</g>
<g id="Camada_4">
</g>
<g id="Camada_5">
</g>
<g id="Camada_6">
</g>
<g id="Camada_7">
</g>
<g id="Camada_8">
	<g>
		<linearGradient id="SVGID_1_" gradientUnits="userSpaceOnUse" x1="118.7922" y1="311.0664" x2="445.8867" y2="311.0664">
			<stop  offset="0" style="stop-color:#FFFFFF"/>
			<stop  offset="0" style="stop-color:#000000"/>
		</linearGradient>
		<path class="st0" d="M149.46,292.11c-2.8-20.42-3.82-41.09-3.05-61.68c0.37-9.83,2.52-21.65,11.69-25.22
			c6.14-2.39,13.32,0.23,18.12,4.74s7.71,10.62,10.52,16.58c2.23-5.55,2.03-11.74,3.17-17.61c1.13-5.87,4.32-12.1,10.08-13.72
			c8.48-2.38,15.69,6.22,20.31,13.71c-0.09-22.42,6.3-46.07,22.9-61.13s44.91-18.12,60.99-2.5c12.71,12.35,14.8,31.87,23.78,47.16
			c-1.77-9.5,5.91-19.19,15.36-21.23s19.53,2.58,25.68,10.03c6.16,7.45,8.82,17.29,9.28,26.94c4.34-9.01,15.87-13.13,25.57-10.68
			s17.38,10.3,21.65,19.35c4.27,9.04,5.55,19.2,6.02,29.19c0.86,18.53-1.41,38.5-13.39,52.67c9.72-2.35,19.9,5.33,22.69,14.93
			c2.79,9.6-0.45,20.1-6.01,28.42c-0.98,1.47-2.07,3-2.12,4.76c-0.09,3.01,2.73,5.15,4.86,7.28c6.83,6.83,7.78,18.71,2.14,26.55
			c-5.65,7.84-17.22,10.69-25.86,6.38c1.38,17.61-5.95,35.15-17.29,48.69s-26.44,23.46-42.16,31.52
			c-25.07,12.84-53.01,21.48-81.13,19.77s-56.36-14.92-71.89-38.42c-1.78,8.95-10.85,15.84-19.96,15.13s-17.01-8.9-17.39-18.02
			c-0.38-9.12,6.82-17.94,15.84-19.4c-30.4-12.95-48.27-44.9-57.95-76.5c8.01-2.37,16.01-4.73,24.02-7.1
			c-3.06-6.38-9.07-11.93-11.81-18.46c-1.15-2.74-1.87-5.65-2.55-8.54c-0.8-3.38-1.56-6.82-1.47-10.3c0.1-3.48,1.14-7.05,3.53-9.57
			c2.77-2.93,7.27-4.08,11.11-2.86c0.82,0.26,1.63,0.62,2.48,0.6S149.58,292.96,149.46,292.11z"/>
		<linearGradient id="SVGID_2_" gradientUnits="userSpaceOnUse" x1="162.9955" y1="332.4002" x2="402.6263" y2="332.4002">
			<stop  offset="0" style="stop-color:#FFFFFF"/>
			<stop  offset="0" style="stop-color:#000000"/>
		</linearGradient>
		<path class="st1" d="M184.11,422.17c-9.63-29.67-19.31-61.72-9.94-91.47c2.34-7.43,5.8-15.67,2.24-22.6
			c8.31,10.33,21.69,17.39,34.75,15.15c13.07-2.24,24.06-15.75,20.89-28.62c-1.31,4.41,0.64,9.39,4.13,12.4
			c3.49,3.01,8.24,4.24,12.85,4.21c11.8-0.09,22.45-7.94,29.02-17.74c6.57-9.8,9.78-21.41,12.89-32.79
			c-6.64,6.38-3.02,18.72,4.98,23.28c8,4.56,18.1,3.16,26.73-0.04c6.74-2.51,13.24-6.14,17.93-11.59
			c4.69-5.46,7.36-12.95,5.88-19.99c-2.14,7.64-0.83,15.85,1.47,23.44c1.56,5.15,3.78,10.44,8.1,13.65c2.5,1.86,5.55,2.89,8.62,3.44
			c14.18,2.57,29.6-5.38,35.73-18.41"/>
		<linearGradient id="SVGID_3_" gradientUnits="userSpaceOnUse" x1="392.4467" y1="324.6268" x2="432.5594" y2="324.6268">
			<stop  offset="0" style="stop-color:#FFFFFF"/>
			<stop  offset="0" style="stop-color:#000000"/>
		</linearGradient>
		<path class="st2" d="M394.79,287.96c8.46,22.4,14.69,45.64,18.57,69.26c4.96-4.53,12.13-6.52,18.71-5.2"/>
		<linearGradient id="SVGID_4_" gradientUnits="userSpaceOnUse" x1="343.3161" y1="354.3154" x2="386.5853" y2="354.3154">
			<stop  offset="0" style="stop-color:#FFFFFF"/>
			<stop  offset="0" style="stop-color:#000000"/>
		</linearGradient>
		<path class="st3" d="M345.43,363.3c3.48-5.49,10.5-7.33,16.86-8.65c8.14-1.69,18.62,0.02,21.92-9.86"/>
		<linearGradient id="SVGID_5_" gradientUnits="userSpaceOnUse" x1="207.1119" y1="394.3186" x2="245.5579" y2="394.3186">
			<stop  offset="0" style="stop-color:#FFFFFF"/>
			<stop  offset="0" style="stop-color:#000000"/>
		</linearGradient>
		<path class="st4" d="M208.1,400.09c4.1,1.77,8.93,0.4,12.76-1.91s7.07-5.5,10.9-7.79c3.84-2.29,8.69-3.62,12.77-1.8"/>
		<linearGradient id="SVGID_6_" gradientUnits="userSpaceOnUse" x1="203.1" y1="342.4021" x2="232.7571" y2="342.4021">
			<stop  offset="0" style="stop-color:#FFFFFF"/>
			<stop  offset="0" style="stop-color:#000000"/>
		</linearGradient>
		<path class="st5" d="M205.11,350.61c2.12-2.85,4.29-5.75,7.19-7.8c2.19-1.55,4.72-2.55,7.23-3.49c4.12-1.54,8.29-2.95,12.51-4.21"
			/>
		<linearGradient id="SVGID_7_" gradientUnits="userSpaceOnUse" x1="332.7233" y1="300.1257" x2="363.7198" y2="300.1257">
			<stop  offset="0" style="stop-color:#FFFFFF"/>
			<stop  offset="0" style="stop-color:#000000"/>
		</linearGradient>
		<path class="st6" d="M362.85,301.23c-9.33-3.46-19.96-3.3-29.19,0.45"/>
		<linearGradient id="SVGID_8_" gradientUnits="userSpaceOnUse" x1="295.2428" y1="403.7238" x2="320.8271" y2="403.7238">
			<stop  offset="0" style="stop-color:#FFFFFF"/>
			<stop  offset="0" style="stop-color:#000000"/>
		</linearGradient>
		<path class="st7" d="M295.68,407.14c8.44,1.51,17.57-1.64,23.28-8.04"/>
		<linearGradient id="SVGID_9_" gradientUnits="userSpaceOnUse" x1="278.591" y1="421.2925" x2="347.1087" y2="421.2925">
			<stop  offset="0" style="stop-color:#FFFFFF"/>
			<stop  offset="0" style="stop-color:#000000"/>
		</linearGradient>
		<path class="st8" d="M279.27,429.93c14.8,4.21,31.07,8.05,45.17,1.86c10.58-4.64,18.47-14.94,20.2-26.37"/>
		<linearGradient id="SVGID_10_" gradientUnits="userSpaceOnUse" x1="179.0956" y1="441.2184" x2="192.3649" y2="441.2184">
			<stop  offset="0" style="stop-color:#FFFFFF"/>
			<stop  offset="0" style="stop-color:#000000"/>
		</linearGradient>
		<path class="st9" d="M181.72,445.47c-0.5-2.23,0.6-4.73,2.58-5.87c1.98-1.14,4.69-0.83,6.37,0.72"/>
		<linearGradient id="SVGID_11_" gradientUnits="userSpaceOnUse" x1="415.8085" y1="369.0048" x2="431.0089" y2="369.0048">
			<stop  offset="0" style="stop-color:#FFFFFF"/>
			<stop  offset="0" style="stop-color:#000000"/>
		</linearGradient>
		<path class="st10" d="M418.31,373.49c-0.13-2.67,2.07-5,4.58-5.91c2.51-0.91,5.26-0.72,7.93-0.52"/>
		<linearGradient id="SVGID_12_" gradientUnits="userSpaceOnUse" x1="299.4243" y1="494.2694" x2="310.1862" y2="494.2694">
			<stop  offset="0" style="stop-color:#FFFFFF"/>
			<stop  offset="0" style="stop-color:#000000"/>
		</linearGradient>
		<path class="st11" d="M299.91,500.19c2.82-0.56,5.34-2.44,6.68-4.98c1.34-2.54,1.46-5.69,0.33-8.33"/>
		<linearGradient id="SVGID_13_" gradientUnits="userSpaceOnUse" x1="347.3162" y1="478.0345" x2="359.3526" y2="478.0345">
			<stop  offset="0" style="stop-color:#FFFFFF"/>
			<stop  offset="0" style="stop-color:#000000"/>
		</linearGradient>
		<path class="st12" d="M349.54,471.44c1.1,2.14,2.2,4.28,3.3,6.42c1.34,2.62,3.37,5.64,6.3,5.38"/>
		<linearGradient id="SVGID_14_" gradientUnits="userSpaceOnUse" x1="372.8232" y1="425.3116" x2="512.3761" y2="425.3116">
			<stop  offset="0" style="stop-color:#FFFFFF"/>
			<stop  offset="0" style="stop-color:#000000"/>
		</linearGradient>
		<path class="st13" d="M400.29,449.38c6.55-7.34,13.1-14.69,19.65-22.03c12.81-14.36,25.62-28.71,38.43-43.07
			c1.34-1.51,2.73-3.08,3.28-5.02c0.6-2.12,0.13-4.37-0.34-6.52c-1.01-4.58-2.02-9.16-3.02-13.73c-1.53-6.95-2.49-15.58,3.17-19.88
			c0.62-0.47,1.34-0.87,2.11-0.85c1.03,0.03,1.89,0.79,2.57,1.57c2.96,3.35,4.67,7.79,4.72,12.26c4.72-7.01,9.57-13.92,14.54-20.75
			c1.4-1.93,3.17-4.03,5.55-4.07c2.88-0.04,4.9,3.22,4.65,6.09c-0.24,2.87-2.03,5.34-3.76,7.65c2.12-3.58,6.28-5.86,10.45-5.72
			c1.41,2.63,0.76,5.98-0.85,8.49c-1.61,2.51-4.05,4.36-6.44,6.15c2.47-1.63,5.1-3.31,8.05-3.43c2.95-0.12,6.21,2,6.17,4.95
			c-0.04,3.59-4.3,5.36-7.79,6.23c3.75,0.64,8.45,2.34,8.44,6.15c-0.01,3.08-3.29,5.04-6.24,5.93c-4.86,1.47-9.99,1.83-14.92,3.05
			c-4.93,1.22-9.9,3.53-12.67,7.79c-1.42,2.18-2.16,4.72-2.97,7.19c-1.16,3.54-2.51,7.01-3.85,10.49
			c-2.82,7.28-5.63,14.56-8.45,21.85c-11.91,30.79-24,61.92-42.97,88.94c-3.55,5.06-7.45,10.07-12.68,13.37
			c-3.03-4.4-8.36-6.47-12.68-9.61c-9.78-7.1-14.42-19.75-16.89-31.15c-1.57-7.25,4.66-10.39,9.52-15.57
			C390.25,460.63,395.27,455,400.29,449.38z"/>
		<linearGradient id="SVGID_15_" gradientUnits="userSpaceOnUse" x1="482.7398" y1="354.716" x2="493.1856" y2="354.716">
			<stop  offset="0" style="stop-color:#FFFFFF"/>
			<stop  offset="0" style="stop-color:#000000"/>
		</linearGradient>
		<path class="st14" d="M485.01,347.49c2.22,4.79,4.15,9.7,5.8,14.72"/>
		<linearGradient id="SVGID_16_" gradientUnits="userSpaceOnUse" x1="90.3478" y1="491.7329" x2="290.4009" y2="491.7329">
			<stop  offset="0" style="stop-color:#FFFFFF"/>
			<stop  offset="0" style="stop-color:#000000"/>
		</linearGradient>
		<path class="st15" d="M97.74,455.83c-1.37,0-3.03,0.17-3.65,1.39c-0.44,0.85-0.16,1.9,0.31,2.74c1.7,2.98,5.45,4.06,8.87,4.35
			c3.42,0.29,7,0.07,10.11,1.53c-3.08-0.46-6.75,0.54-7.98,3.4c-1.84,4.26,3.25,8.64,7.89,8.76s9.02-2.14,13.64-2.56
			c9.14-0.82,17.19,5.5,24.35,11.25c27.49,22.08,57.56,40.94,89.41,56.07c11.33,5.38,22.96,10.32,35.22,12.95
			c-1.21-9.28,7.86-16.49,10.85-25.36c3-8.93-0.43-18.61-3.83-27.4c-7.89,1.76-16.09-0.03-23.97-1.82
			c-15.45-3.51-30.91-7.01-46.36-10.52c-11.07-2.51-22.19-5.04-32.8-9.1c-11.67-4.47-22.56-10.73-33.39-16.97
			c-2.38-1.37-4.82-2.79-6.52-4.94c-2.93-3.7-3.14-8.78-3.73-13.47c-0.6-4.86-1.74-9.66-3.39-14.27c-0.58-1.62-1.31-3.33-2.79-4.22
			c-2.62-1.57-6.19,0.49-7.34,3.32s-0.58,6.02,0,9.02c-5.68-3.65-11.42-7.2-17.22-10.65c-1.35-0.8-2.77-1.62-4.34-1.71
			c-1.57-0.09-3.31,0.8-3.64,2.34c-0.32,1.5,0.75,2.9,1.77,4.04c3.01,3.36,6.2,6.56,9.55,9.58c-3.77-2.23-8.22-3.3-12.6-3.02
			c-1.01,0.06-2.11,0.25-2.77,1.01c-1.01,1.18-0.43,3,0.33,4.34c2.68,4.72,8.07,9.54,13.63,10.08
			C104.28,455.58,100.91,455.82,97.74,455.83z"/>
		<linearGradient id="SVGID_17_" gradientUnits="userSpaceOnUse" x1="281.9289" y1="497.0505" x2="371.2893" y2="497.0505">
			<stop  offset="0" style="stop-color:#FFFFFF"/>
			<stop  offset="0" style="stop-color:#000000"/>
		</linearGradient>
		<path class="st16" d="M283.21,499.57c4.83-2.87,11.31-2.67,15.95,0.5c2.26,1.54,4.04,3.66,5.97,5.6
			c4.38,4.39,9.65,7.89,15.4,10.23c6.83,2.77,15.02,3.75,21.29-0.11c3.92-2.42,6.58-6.4,8.92-10.37c2.99-5.07,5.7-10.51,6.2-16.37
			c0.18-2.07,0.09-4.2,0.83-6.14c1.88-4.89,7.96-6.37,13.14-7.16"/>
		<linearGradient id="SVGID_18_" gradientUnits="userSpaceOnUse" x1="246.9752" y1="589.731" x2="435.0652" y2="589.731">
			<stop  offset="0" style="stop-color:#FFFFFF"/>
			<stop  offset="0" style="stop-color:#000000"/>
		</linearGradient>
		<path class="st17" d="M277.6,557.96c-2.3,8.68-3.48,17.66-3.52,26.64c-0.02,4.85,0.29,9.8-0.98,14.48
			c-1.04,3.83-3.07,7.29-5.09,10.71c-3.33,5.64-6.65,11.27-9.98,16.91c-4.02,6.81-8.14,13.96-8.54,21.86
			c-0.05,1.06-0.02,2.2,0.61,3.06c0.53,0.73,1.4,1.13,2.25,1.44c9.8,3.55,20.56-1.23,29.47-6.64c9.04-5.49,17.79-11.94,23.73-20.69
			c7.87-11.61,10.06-26.1,16.1-38.75c10.47-21.91,31.99-36.89,54.85-45.11c9.38-3.37,19.29-5.8,29.24-5.26
			c9.96,0.54,20.02,4.31,26.68,11.74c0.91-3.67-2.64-6.78-5.78-8.89c-7.27-4.9-14.54-9.8-21.81-14.7"/>
		<linearGradient id="SVGID_19_" gradientUnits="userSpaceOnUse" x1="311.8372" y1="556.3315" x2="388.659" y2="556.3315">
			<stop  offset="0" style="stop-color:#FFFFFF"/>
			<stop  offset="0" style="stop-color:#000000"/>
		</linearGradient>
		<path class="st18" d="M388.26,526.6c-13.09-2.11-27.01,1.6-37.29,9.96c-5.89,4.78-10.52,10.89-14.97,17.04
			c-4.12,5.7-8.15,11.52-11.03,17.93c-2.85,6.36-5.94,14.41-12.88,15.13"/>
		<linearGradient id="SVGID_20_" gradientUnits="userSpaceOnUse" x1="273.1736" y1="604.1805" x2="439.0939" y2="604.1805">
			<stop  offset="0" style="stop-color:#FFFFFF"/>
			<stop  offset="0" style="stop-color:#000000"/>
		</linearGradient>
		<path class="st19" d="M273.42,654.02c33.79,3.31,68.66-5.88,96.43-25.41c3.92-2.75,7.73-5.74,10.78-9.43
			c4.21-5.09,6.82-11.35,10.96-16.5c7.05-8.78,17.83-13.59,28.4-17.45c5.23-1.91,10.87-3.94,14.05-8.51
			c4.89-7.05,1.82-16.64-1.38-24.59"/>
		<linearGradient id="SVGID_21_" gradientUnits="userSpaceOnUse" x1="339.1512" y1="630.8461" x2="345.5468" y2="630.8461">
			<stop  offset="0" style="stop-color:#FFFFFF"/>
			<stop  offset="0" style="stop-color:#000000"/>
		</linearGradient>
		<path class="st20" d="M341.07,626.9c1.95,2.34,2.52,5.75,1.43,8.6"/>
		<g>
			<linearGradient id="SVGID_22_" gradientUnits="userSpaceOnUse" x1="352.3603" y1="586.5149" x2="373.9054" y2="586.5149">
				<stop  offset="0" style="stop-color:#FFFFFF"/>
				<stop  offset="0" style="stop-color:#000000"/>
			</linearGradient>
			<path class="st21" d="M363.71,578.41c-3.03,0.1-6.6,0.5-8.11,3.14c-0.61,1.06-0.75,2.33-0.75,3.55c0.01,2.58,0.65,5.22,2.2,7.28
				s4.11,3.45,6.68,3.23c2.12-0.18,4-1.38,5.78-2.54c0.72-0.47,1.49-1,1.77-1.82c0.2-0.58,0.11-1.21,0.02-1.82
				c-0.19-1.3-0.39-2.59-0.58-3.89c-0.35-2.3-0.75-4.74-2.29-6.5c-1.53-1.75-4.61-2.36-6.13-0.61"/>
		</g>
		<linearGradient id="SVGID_23_" gradientUnits="userSpaceOnUse" x1="358.3137" y1="578.9254" x2="381.9117" y2="578.9254">
			<stop  offset="0" style="stop-color:#FFFFFF"/>
			<stop  offset="0" style="stop-color:#000000"/>
		</linearGradient>
		<path class="st22" d="M379.33,570.17c0.38,2.47-0.55,5.02-2.04,7.02c-1.49,2-3.5,3.54-5.52,4.99c-1.41,1-7.89,6.57-9.64,5.84
			c-2.95-1.22-0.15-5.54,0.88-7.08C366.74,575.37,372.75,571.29,379.33,570.17z"/>
	</g>
	<linearGradient id="SVGID_24_" gradientUnits="userSpaceOnUse" x1="333.2" y1="585.1041" x2="388.4274" y2="585.1041">
		<stop  offset="0" style="stop-color:#FFFFFF"/>
		<stop  offset="0" style="stop-color:#000000"/>
	</linearGradient>
	<path class="st23" d="M341.87,573.56c-4.55,2.54-7.07,8.27-5.87,13.35c1.56,6.58,8.1,10.58,14.22,13.45
		c8.35,3.92,17.03,7.15,25.92,9.63c3.29-8.85,6.06-17.88,8.29-27.05c0.96-3.94,1.83-7.98,1.37-12.01s-2.46-8.08-6.01-10.03
		c-3.56-1.95-8.17-1.41-11.55,0.83c-3.38,2.24-5.59,5.98-6.58,9.91c-0.42,1.68-0.71,3.56-2.02,4.71c-2.66,2.35-4.59-2.02-6.56-3.05
		C349.7,571.54,345.17,571.71,341.87,573.56z"/>
</g>
</svg>
